<?xml version="1.0"?>
<!DOCTYPE svg PUBLIC "-//W3C//DTD SVG 1.1//EN"
"http://www.w3.org/Graphics/SVG/1.1/DTD/svg11.dtd">
<svg version="1.1" xmlns="http://www.w3.org/2000/svg"
xmlns:xlink="http://www.w3.org/1999/xlink"
width="1200px" height="800px"
viewBox="0 0 3 2"
preserveAspectRatio="xMidYMid">

--Figura Pierwsza
<g transform="translate(0.0,-0.2) scale(1.2,1.2)">
	<g>
	<animateTransform attributeName = "transform" type = "rotate"
		from = "0 0.15, 0.35" to = "360 0.15, 0.35"
		dur = "6s"
		repeatCount="indefinite"/>	
		<polygon points="
25 , 0
23.4923155196 , 8.5505035831
19.151111078 , 16.0696902422
12.5 , 21.6506350946
4.3412044417 , 24.6201938253
-4.3412044417 , 24.6201938253
-12.5 , 21.6506350946
-19.151111078 , 16.0696902422
-23.4923155196 , 8.5505035831
-25 , 0
-23.4923155196 , -8.5505035831
-19.151111078 , -16.0696902422
-12.5 , -21.6506350946
-4.3412044417 , -24.6201938253
4.3412044417 , -24.6201938253
12.5 , -21.6506350946
19.151111078 , -16.0696902422
23.4923155196 , -8.5505035831
"
			fill="grey" transform="translate(0.15,0.35) scale(0.005,0.005) "/>
	</g>
	<g>
	<animateTransform attributeName = "transform" type = "rotate"
		from = "0 0.7,0.53" to = "360 0.7,0.53"
		dur = "6s"
		repeatCount="indefinite"/>	
		<polygon points="25 , 0
23.4923155196 , 8.5505035831
19.151111078 , 16.0696902422
12.5 , 21.6506350946
4.3412044417 , 24.6201938253
-4.3412044417 , 24.6201938253
-12.5 , 21.6506350946
-19.151111078 , 16.0696902422
-23.4923155196 , 8.5505035831
-25 , 0
-23.4923155196 , -8.5505035831
-19.151111078 , -16.0696902422
-12.5 , -21.6506350946
-4.3412044417 , -24.6201938253
4.3412044417 , -24.6201938253
12.5 , -21.6506350946
19.151111078 , -16.0696902422
23.4923155196 , -8.5505035831"
			fill="grey" transform="translate(0.7,0.53) scale(0.005,0.005)"/>
	</g>	
	<rect x="0.25" y="0.27" width = "0.6" height = "0.04" transform = "rotate (18)"
		fill="red"  />
	<polygon points="0.33,0.8 0.4,0.43 0.48,0.8" fill="magenta" />
	
</g>

--Figura Druga
<g transform="translate(0.5,0.5) scale(1.5,1.5)" >
	<g>
	<animateTransform attributeName = "transform" type = "rotate"
		from = "0 0.13,0.38" to = "360 0.13,0.38"
		dur = "1s"
		repeatCount="indefinite"/>	
		<polygon points="25 , 0
23.4923155196 , 8.5505035831
19.151111078 , 16.0696902422
12.5 , 21.6506350946
4.3412044417 , 24.6201938253
-4.3412044417 , 24.6201938253
-12.5 , 21.6506350946
-19.151111078 , 16.0696902422
-23.4923155196 , 8.5505035831
-25 , 0
-23.4923155196 , -8.5505035831
-19.151111078 , -16.0696902422
-12.5 , -21.6506350946
-4.3412044417 , -24.6201938253
4.3412044417 , -24.6201938253
12.5 , -21.6506350946
19.151111078 , -16.0696902422
23.4923155196 , -8.5505035831"
			fill="grey" transform="translate(0.13,0.38) scale(0.005,0.005)"/>
	</g>
	
	<g>
	<animateTransform attributeName = "transform" type = "rotate"
		from = "0 0.69,0.55" to = "360 0.69,0.55"
		dur = "6s"
		repeatCount="indefinite"/>	
		<polygon points="25 , 0
23.4923155196 , 8.5505035831
19.151111078 , 16.0696902422
12.5 , 21.6506350946
4.3412044417 , 24.6201938253
-4.3412044417 , 24.6201938253
-12.5 , 21.6506350946
-19.151111078 , 16.0696902422
-23.4923155196 , 8.5505035831
-25 , 0
-23.4923155196 , -8.5505035831
-19.151111078 , -16.0696902422
-12.5 , -21.6506350946
-4.3412044417 , -24.6201938253
4.3412044417 , -24.6201938253
12.5 , -21.6506350946
19.151111078 , -16.0696902422
23.4923155196 , -8.5505035831"
			fill="grey" transform="translate(0.69,0.55) scale(0.005,0.005)"/>
	</g>
	<rect x="0.23" y="0.3" width = "0.6" height = "0.04" transform = "rotate (18)"
		fill="red" />
	<polygon points="0.30,1.2 0.4,0.44 0.51,1.2" fill="blue"/>
</g>

--Trzecia figura
<g transform="translate(1.3,0.2) scale(1.1,1.1)" >
	<g>
		<animateTransform attributeName = "transform" type = "rotate"
		from = "0 0.13,0.38" to = "360 0.13,0.38"
		dur = "6s"
		repeatCount="indefinite"/>	
		<polygon points="25 , 0
23.4923155196 , 8.5505035831
19.151111078 , 16.0696902422
12.5 , 21.6506350946
4.3412044417 , 24.6201938253
-4.3412044417 , 24.6201938253
-12.5 , 21.6506350946
-19.151111078 , 16.0696902422
-23.4923155196 , 8.5505035831
-25 , 0
-23.4923155196 , -8.5505035831
-19.151111078 , -16.0696902422
-12.5 , -21.6506350946
-4.3412044417 , -24.6201938253
4.3412044417 , -24.6201938253
12.5 , -21.6506350946
19.151111078 , -16.0696902422
23.4923155196 , -8.5505035831"
			fill="grey" transform="translate(0.13,0.38) scale(0.005,0.005)"/>
	</g>
	<g>
	<animateTransform attributeName = "transform" type = "rotate"
		from = "0 0.69,0.55" to = "360 0.69,0.55"
		dur = "6s"
		repeatCount="indefinite"/>	
		<polygon points="25 , 0
23.4923155196 , 8.5505035831
19.151111078 , 16.0696902422
12.5 , 21.6506350946
4.3412044417 , 24.6201938253
-4.3412044417 , 24.6201938253
-12.5 , 21.6506350946
-19.151111078 , 16.0696902422
-23.4923155196 , 8.5505035831
-25 , 0
-23.4923155196 , -8.5505035831
-19.151111078 , -16.0696902422
-12.5 , -21.6506350946
-4.3412044417 , -24.6201938253
4.3412044417 , -24.6201938253
12.5 , -21.6506350946
19.151111078 , -16.0696902422
23.4923155196 , -8.5505035831"
			fill="grey" transform="translate(0.69,0.55) scale(0.005,0.005)"/>
	</g>
	<rect x="0.23" y="0.3	" width = "0.6" height = "0.04" transform = "rotate (18)"
		fill="red"  />
	<polygon points="0.30,0.8 0.4,0.44 0.51,0.8" fill="green"/>
</g>
	
</svg>